<?xml version="1.0" encoding="utf-8"?>
<!-- Generator: Adobe Illustrator 26.3.1, SVG Export Plug-In . SVG Version: 6.00 Build 0)  -->
<svg version="1.1" xmlns="http://www.w3.org/2000/svg" xmlns:xlink="http://www.w3.org/1999/xlink" x="0px" y="0px"
	 viewBox="0 0 500 500" style="enable-background:new 0 0 500 500;" xml:space="preserve">
<style type="text/css">
	.st0{display:none;}
	.st1{display:inline;}
	.st2{display:inline;fill:#A54242;}
	.st3{fill:#FFFFFF;}
</style>
<g id="Calque_1" class="st0">
	<path class="st1" d="M45.4,225h-8.2v-24.3l-8.2,3.9l-4.3,1.7h2.4l1.9-0.7V225h-8.3v-76.6l16.5-7.6h8.2V225z M37.2,199.6v-57.8
		l-8.2,4v57.5L37.2,199.6z"/>
	<path class="st1" d="M82.3,225H74v-22.8l-16.1-37.8V225h-8.3v-84.2h8.3v17.9l-2.2-4.4h-0.9L74,199v-58.2h8.3V225z"/>
	<path class="st1" d="M111.3,149.2H86.5v-8.4h24.7V149.2z M94.7,149.2l8.3,18.9V225h-8.3V149.2z M130,125l11.5-0.1l16.6,17.1l-6,5.8
		L130,125z"/>
	<path class="st1" d="M131.9,225h-16.4v-80.4l8.2-3.8h16.5v80.3L131.9,225z M131.9,224v-81.1h2.2v-1.2h-10.4v81.1h-2.1v1.2H131.9z"
		/>
	<path class="st1" d="M171.7,260.5c-0.7-0.1-1-0.9-1.2-1.4l-0.1-0.3l-0.5-1.5l-1.8-4.7l-0.1-0.2h-3.6v0.2c0,0,1.8,0.1,2,0.1
		c0.4,0,0.4,0.3,0.4,0.5c-0.1,0.3-0.3,0.8-0.4,1l-1.8,3.8l-0.6,1.2c0,0.1-0.3,0.6-0.5,0.9c-0.2,0.2-0.4,0.4-0.7,0.5
		c-0.2,0.1-0.9,0.1-0.9,0.1v0.2h4.2v-0.2l-2.6-0.1l1.2-2.4l3.5-2l0.1-0.1l0.9,2.4c0,0,0,0,0,0l0.2,0.4l0.5,1.4l0.1,0.3l-0.2,0
		l-0.8,0.1v0.2h3.4v-0.2C172.4,260.6,172,260.6,171.7,260.5z M168,255.8l-3.3,1.9l2.2-4.5l0.1-0.3l0,0.1l0.7,1.9l0.3,0.9L168,255.8z
		"/>
	<path class="st1" d="M181.4,252.4L181.4,252.4L181.4,252.4c-0.1,0-0.2,0-0.2,0H181c0,0,0,0,0,0
		C181.1,252.4,181.2,252.4,181.4,252.4C181.4,252.4,181.4,252.4,181.4,252.4z"/>
	<path class="st1" d="M181.4,252.4L181.4,252.4L181.4,252.4c-0.1,0-0.2,0-0.2,0H181c0,0,0,0,0,0
		C181.1,252.4,181.2,252.4,181.4,252.4C181.4,252.4,181.4,252.4,181.4,252.4z"/>
	<path class="st1" d="M181.4,252.4L181.4,252.4L181.4,252.4C181.4,252.4,181.4,252.4,181.4,252.4c-0.1,0.1-0.2,0-0.4,0c0,0,0,0,0,0
		h-3.7c-1.5,0.1-2.1,0.1-2.3,0c0,0-0.2-0.1-0.3-0.1c-0.1,0-0.2,0-0.3,0c-0.1,0.1-0.1,0.1-0.2,0.2c0.1,0,0.2,0,0.4,0.1
		c0.2,0.1,0.3,0.4,0.3,0.4c0.1-0.1,0.3-0.2,0.6-0.3c0,0,0.2-0.1,0.6-0.1c0.2,0,0.7,0,0.7,0h0.6v6.9c0,0.2,0,0.5,0,0.6
		c0,0.2-0.1,0.4-0.4,0.5c0,0,0,0-0.1,0c-0.2,0-0.6,0-0.6,0v0.2h3.2v-0.2l-1.1-0.1v-2.4c0.5,1.6,1.8,2.9,3.6,2.9c2,0,3.5-1.8,3.5-4.3
		C185.3,254.6,183.8,252.4,181.4,252.4z M178.2,252.6h0.6c0,0,0.4,0,0.7,0c0.2,0,0.4,0,0.5,0.1c-0.9,0.4-1.5,1.2-1.8,2.4V252.6z
		 M182.5,260.5c-2.4,0-3.8-2.9-3.8-5.2c0-1.3,0.6-2.4,1.9-2.4h0.1c0.2,0,0.5,0,0.7,0.1h0c2.1,0.5,3.2,3,3.2,5
		C184.7,259.4,184,260.5,182.5,260.5z"/>
</g>
<g id="Calque_3" class="st0">
</g>
<g id="Calque_4" class="st0">
	<path class="st1" d="M181.4,252.5c-0.1,0-0.2,0-0.4-0.1c0,0,0,0,0,0L181.4,252.5C181.4,252.4,181.4,252.4,181.4,252.5z"/>
	<path class="st1" d="M155.5,279.5c-0.7-0.1-1-0.9-1.2-1.4l-0.1-0.3l-0.5-1.5l-1.8-4.7l-0.1-0.2h-3.6v0.2c0,0,1.8,0.1,2,0.1
		c0.4,0,0.4,0.3,0.4,0.5c-0.1,0.3-0.3,0.8-0.4,1l-1.8,3.8l-0.6,1.2c0,0.1-0.3,0.6-0.5,0.9c-0.2,0.2-0.4,0.4-0.7,0.5
		c-0.2,0.1-0.9,0.1-0.9,0.1v0.2h4.2v-0.2l-2.6-0.1l1.2-2.4l3.5-2l0.1-0.1l0.9,2.4c0,0,0,0,0,0l0.2,0.4l0.5,1.4l0.1,0.3l-0.2,0
		l-0.8,0.1v0.2h3.4v-0.2C156.2,279.5,155.8,279.5,155.5,279.5z M151.9,274.8l-3.3,1.9l2.2-4.5l0.1-0.3l0,0.1l0.7,1.9l0.3,0.9
		L151.9,274.8z"/>
	<path class="st1" d="M165.2,271.3L165.2,271.3L165.2,271.3c-0.1,0-0.2,0-0.2,0h-0.2c0,0,0,0,0,0C165,271.4,165.1,271.4,165.2,271.3
		C165.2,271.4,165.2,271.3,165.2,271.3z"/>
	<path class="st1" d="M165.2,271.3L165.2,271.3L165.2,271.3c-0.1,0-0.2,0-0.2,0h-0.1c0,0,0,0,0,0C165,271.4,165.1,271.4,165.2,271.3
		C165.2,271.4,165.2,271.3,165.2,271.3z"/>
	<path class="st1" d="M165.2,271.3L165.2,271.3L165.2,271.3C165.2,271.3,165.2,271.4,165.2,271.3c-0.1,0.1-0.2,0-0.4,0c0,0,0,0,0,0
		h-3.7l-2.3,0h-0.5v-0.1h-0.1c0,0-0.1,0-0.1,0l0,0.2h0c0.3,0,0.5,0.2,0.6,0.5c0.2-0.2,0.3-0.2,0.6-0.3c0.2,0,0.4-0.1,0.6-0.1
		c0.2,0,0.7,0,0.7,0h0.6v6.9c0,0.2,0,0.5,0,0.6c0,0.2-0.1,0.4-0.4,0.5c0,0,0,0-0.1,0c-0.2,0-0.6,0-0.6,0v0.2h3.2v-0.2l-1.1-0.1v-2.4
		c0.5,1.6,1.8,2.9,3.6,2.9c2,0,3.5-1.8,3.5-4.3C169.2,273.6,167.7,271.3,165.2,271.3z M162.1,271.5h0.6c0,0,0.4,0,0.7,0
		c0.2,0,0.4,0,0.5,0.1c-0.9,0.4-1.5,1.2-1.8,2.4V271.5z M166.3,279.5c-2.4,0-3.8-2.9-3.8-5.2c0-1.3,0.6-2.4,1.9-2.4h0.1
		c0.2,0,0.5,0,0.7,0.1h0c2.1,0.5,3.2,3,3.2,5C168.5,278.3,167.9,279.5,166.3,279.5z"/>
	<g class="st1">
		<path d="M152.8,279.5v0.2h0.7c0,0,0-0.1,0.1-0.2L152.8,279.5z M161.8,278.6c-0.2-0.4-0.4-1-0.7-1.6v0.5c0.2,0.4,0.3,0.8,0.5,1.1
			c0.2,0.4,0.2,0.6,0.1,0.8c-0.1,0.2-0.4,0.2-0.8,0.2H159c-1.4-0.1-0.8-1-0.2-2.9c0.1-0.4,0.2-0.7,0.3-1.1v0
			c0.2-0.6,0.3-1.3,0.4-1.8c0,0,0,0,0,0c0-0.1,0-0.1,0-0.2c0-0.1,0-0.2,0-0.2c0,0,0,0,0,0c0,0,0,0,0,0c0,0,0,0,0-0.1c0,0,0,0,0,0
			c0,0,0-0.1,0-0.1c0-0.5,0-1.1-0.4-1.5c-0.1-0.1-0.2-0.2-0.4-0.3c-0.1-0.1-0.3-0.1-0.5-0.1h-0.1c0,0-0.1,0-0.1,0
			c-1.3,0.1-2.2,1.6-2.6,2.5c0.1-0.3,0.1-0.5,0.1-0.7c0-0.9-0.3-1.7-1.4-1.7h-2.2c0,0,0,0,0,0c-0.6,0-1.1,0.2-1,0.8l0.1-0.3l0,0.1
			c0-0.3,0.4-0.5,0.8-0.5h1.8c1.3,0,0.8,2.4,0.1,4.7c-0.1,0.4-0.3,0.8-0.4,1.2c-0.3-0.6-1-2.2-1.5-3.6l0.3,0.9l-0.1,0.1
			c0,0.1,0.1,0.1,0.1,0.2l0.1-0.1l0.9,2.4c0,0,0,0,0,0c0.1,0.2,0.2,0.4,0.2,0.4c0,0,0,0,0,0l0.5,1.4c0.1-0.4,0.3-0.9,0.5-1.5
			c0.3-0.9,0.7-2,0.9-2.9c0.5-1.3,1.5-3.3,2.8-3.4h0c0.3,0,0.5,0.2,0.6,0.5c0.3,1.2-0.7,4.2-1.3,6.1c-0.3,1.1,0.2,1.7,1.3,1.7h2.4
			C161.7,279.7,162.1,279.3,161.8,278.6z"/>
		<path d="M159.6,273.2C159.6,273.2,159.6,273.2,159.6,273.2v0.1c0,0,0,0,0,0c0,0.1,0,0.1,0,0.2c0,0.1,0,0.1,0,0.2
			c-0.1,0.7-0.2,1.3-0.4,1.8v0l0.4-3.2C159.6,272.6,159.6,272.9,159.6,273.2z"/>
	</g>
	<path class="st1" d="M165.2,271.4c-0.1,0-0.2,0-0.4-0.1c0,0,0,0,0,0L165.2,271.4C165.2,271.3,165.2,271.4,165.2,271.4z"/>
	<path class="st1" d="M164.8,299v0.2h0.7c0,0,0-0.1,0.1-0.2L164.8,299z M165,296.8l0.2,0.4c0,0,0,0,0,0
		C165.1,297.1,165.1,297,165,296.8z"/>
	<g class="st1">
		<path d="M177.3,290.6L177.3,290.6c-0.2,0-0.3,0-0.4,0c0,0,0,0,0,0h-3.7l-2.3,0h-0.8c0,0,0,0,0,0c0,0-0.1,0-0.1,0
			c-1.3,0.1-2.2,1.6-2.6,2.5c0.1-0.3,0.1-0.5,0.1-0.7c0-0.9-0.3-1.7-1.4-1.7h-2.2c0,0,0,0,0,0h-3.6v0.2c0,0,1.8,0.1,2,0.1
			c0.4,0,0.4,0.3,0.4,0.5c-0.1,0.3-0.3,0.8-0.4,1l-1.8,3.8l-0.6,1.2c0,0.1-0.3,0.6-0.5,0.9c-0.2,0.2-0.4,0.4-0.7,0.5
			c-0.2,0.1-0.9,0.1-0.9,0.1v0.2h4.2V299l-2.6-0.1l1.2-2.4l3.5-2l0.1-0.1l0.9,2.4c0,0,0,0,0,0c0.1,0.2,0.2,0.4,0.2,0.4c0,0,0,0,0,0
			l0.5,1.4l0.1,0.3l-0.2,0l-0.8,0.1v0.2h3.4V299c0,0-0.4,0-0.7-0.1c-0.7-0.1-1-0.9-1.2-1.4l-0.1-0.3c0.3-0.9,0.7-2,0.9-2.9
			c0.5-1.3,1.5-3.3,2.8-3.4h0c0.3,0,0.5,0.2,0.6,0.5c0.3,1.2-0.7,4.2-1.3,6.1c-0.3,1.1,0.2,1.7,1.3,1.7h2.4c0.1,0,0.2,0,0.2,0h2.2
			V299l-1.1-0.1v-2.4c0.5,1.6,1.8,3,3.6,3c2,0,3.5-1.8,3.5-4.4C181.3,292.9,179.8,290.7,177.3,290.6z M163.8,294.2l-3.3,1.9l2.2-4.5
			l0.1-0.3l0,0.1l0.7,1.8l0.3,0.9L163.8,294.2z M165.6,295.6l-1.8-4.7h1.7C166.9,291,166.4,293.3,165.6,295.6z M173.2,297.8
			c0,0.2,0,0.5,0,0.6c0,0.2-0.1,0.4-0.4,0.5c0,0,0,0-0.1,0c0,0,0,0-0.1,0h-1.6c-1.4-0.1-0.8-1-0.2-2.9c0.1-0.4,0.2-0.7,0.3-1.1v0
			c0.2-0.4,0.4-1,0.4-1.8c0-0.1,0-0.1,0-0.2c0-0.1,0-0.2,0-0.2c0,0,0,0,0,0c0,0,0,0,0,0c0,0,0,0,0-0.1c0,0,0,0,0,0c0,0,0-0.1,0-0.1
			c0-0.5,0-1.1-0.4-1.5c0,0,0,0-0.1,0c0.1,0,0.1,0,0.2,0c0.2,0,0.4-0.1,0.6-0.1c0.2,0,0.7,0,0.7,0h0.6V297.8z M174.2,290.8h0.6
			c0,0,0.4,0,0.7,0c0.2,0,0.4,0,0.5,0.1c-0.9,0.4-1.5,1.2-1.8,2.4V290.8z M178.4,298.9c-2.4,0-3.8-2.9-3.8-5.3
			c0-1.4,0.6-2.4,1.9-2.5h0.1c0.2,0,0.5,0,0.7,0.1h0c2.1,0.5,3.2,3,3.2,5C180.6,297.7,179.9,298.9,178.4,298.9z"/>
		<path d="M171.5,292.7v0.1C171.5,292.8,171.5,292.8,171.5,292.7C171.5,292.7,171.5,292.7,171.5,292.7z"/>
	</g>
	<path class="st1" d="M134.7,322.9v0.2h0.7c0,0,0-0.1,0.1-0.2L134.7,322.9z M134.9,320.7l0.2,0.4c0,0,0,0,0,0
		C135.1,321.1,135,320.9,134.9,320.7z"/>
</g>
<g id="Calque_6" class="st0">
	<path class="st1" d="M169.9,309.5v0.1C169.9,309.6,169.9,309.6,169.9,309.5C169.9,309.5,169.9,309.5,169.9,309.5z"/>
	<path class="st1" d="M227.9,307.4L227.9,307.4c-0.2,0-0.3,0-0.4,0c0,0,0,0,0,0h-3.7l-2.3,0h-0.8c0,0,0,0,0,0c0,0-0.1,0-0.1,0
		c-1.3,0.1-2.2,1.6-2.6,2.5c0.1-0.3,0.1-0.5,0.1-0.7c0-0.9-0.3-1.7-1.4-1.7h-2.2c0,0,0,0,0,0h-3.6v0.2c0,0,1.8,0.1,2,0.1
		c0.4,0,0.4,0.3,0.4,0.5c-0.1,0.3-0.3,0.8-0.4,1l-1.8,3.8l-0.6,1.2c0,0.1-0.3,0.6-0.5,0.9c-0.2,0.2-0.4,0.4-0.7,0.5
		c-0.2,0.1-0.9,0.1-0.9,0.1v0.2h4.2v-0.2l-2.6-0.1l1.2-2.4l3.5-2l0.1-0.1c0.6,1.5,1.1,3,1.7,4.6l-0.2,0l-0.8,0.1v0.2h3.4v-0.2
		c0,0-0.4,0-0.7-0.1c-0.7-0.1-1-0.9-1.2-1.4l-0.1-0.3c0.3-0.9,0.7-2,0.9-2.9c0.5-1.3,1.5-3.3,2.8-3.4h0c0.3,0,0.5,0.2,0.6,0.5
		c0.3,1.2-0.7,4.2-1.3,6.1c-0.3,1.1,0.2,1.7,1.3,1.7h2.4c0.1,0,0.2,0,0.2,0h2.2v-0.2l-1.1-0.1v-2.4c0.5,1.6,1.8,3,3.6,3
		c2,0,3.5-1.8,3.5-4.4C231.8,309.7,230.3,307.4,227.9,307.4z M214.4,311l-3.3,1.9l2.2-4.5l0.1-0.3l0,0.1l0.7,1.8l0.3,0.9L214.4,311z
		 M216.2,312.4l-1.8-4.7h1.7C217.4,307.7,216.9,310.1,216.2,312.4z M223.7,314.6c0,0.2,0,0.5,0,0.6c0,0.2-0.1,0.4-0.4,0.5
		c0,0,0,0-0.1,0c0,0,0,0-0.1,0h-1.6c-1.4-0.1-0.8-1-0.2-2.9c0.1-0.4,0.2-0.7,0.3-1.1v0c0.2-0.4,0.4-1,0.4-1.8c0-0.1,0-0.1,0-0.2
		c0-0.1,0-0.2,0-0.2c0,0,0,0,0,0c0,0,0,0,0,0c0,0,0,0,0-0.1c0,0,0,0,0,0c0,0,0-0.1,0-0.1c0-0.5,0-1.1-0.4-1.5c0,0,0,0-0.1,0
		c0.1,0,0.1,0,0.2,0c0.2,0,0.4-0.1,0.6-0.1c0.2,0,0.7,0,0.7,0h0.6V314.6z M224.7,307.6h0.6c0,0,0.4,0,0.7,0c0.2,0,0.4,0,0.5,0.1
		c-0.9,0.4-1.5,1.2-1.8,2.4V307.6z M229,315.7c-2.4,0-3.8-2.9-3.8-5.3c0-1.4,0.6-2.4,1.9-2.5h0.1c0.2,0,0.5,0,0.7,0.1h0
		c2.1,0.5,3.2,3,3.2,5C231.2,314.5,230.5,315.7,229,315.7z"/>
	<path class="st1" d="M104.6,309.5v0.1C104.6,309.5,104.6,309.5,104.6,309.5C104.6,309.5,104.6,309.5,104.6,309.5z"/>
</g>
<g id="Calque_5" class="st0">
</g>
<g id="Calque_7" class="st0">
	<path id="save" d="M120.2,282.8h-74v4.1c0,0,37.4,2.3,41,2.3c8.5,0.4,9.2,6.9,7.7,11.1c-2.7,7.3-6.9,16.9-9.2,21.2l-38.3,78.7
		l-12.1,25.6c-0.8,1.2-7.1,12.9-11,18.3c-4,5.2-8.3,8.3-13.7,10c-4.8,1.5-18.3,2.1-18.3,2.1v3.3h87.1v-3.3l-53.5-2.3l24.8-50.8
		l72.7-42.1l2.7-1.7c11.8,31.7,23.6,63.3,35.4,95l-4.6,0.4l-16.2,1.5v3.3h71.6v-3.3c0,0-9-0.4-14.8-1.7c-14-2.7-20-17.9-24.6-29.6
		l-2.7-7.1c6.7-19,13.7-41,19-60.4c10-26.2,30.6-69.4,59.1-70.4h1c6.5,0,10.4,3.5,12.3,9.8c7.3,24.4-15.4,88.3-27.9,126.4
		c-7.3,22.3,5.2,36.2,26.2,36.2h50.4c1.5,0,3.1,0,4.4-0.2h45V456l-22.7-1.9v-50.6c10,32.9,36.9,56,75.8,56c40.8,0,71.9-37,71.9-91
		c0-43.7-31.1-85.8-82.7-86.3h-0.2c-2.9,0.2-5.8,0.2-8.5,0.2c-0.2,0-0.2,0-0.4,0h-76.9l-48.3,0.2h-16c-0.2,0-0.2,0-0.4,0
		c-0.8,0-1.7,0-2.3,0.2c-27.5,1.9-46.2,34.2-54.6,51.2c1.2-5.6,1.9-10.6,1.9-14.6c0-18.1-6.6-36.9-28.2-36.9 M121.5,357.3
		l-68.1,39.4l45.8-94.3l2.9-5.8l0.8,2.3l14.6,38.5l6.9,18.3L121.5,357.3z M158.6,386.7l-36.7-97.9h35.2
		C185,288.8,174.4,338.4,158.6,386.7z M315.8,431.9c0,4.4-0.6,10.6-1,13.5c-0.8,4.6-2.3,8.1-8.3,9.8c-0.4,0-0.8,0.2-1.5,0.2
		c-0.4,0-1,0.2-1.7,0.2h-34.2c-28.9-1.2-16.9-21.5-4.2-60.2c2.3-7.3,4.8-15,6.9-22.7v-0.4c3.7-9.2,7.7-21.7,9-36.7
		c0.2-1.2,0.4-2.7,0.4-4c0.2-1.7,0.2-3.1,0.2-4.6c0-0.2,0-0.2,0-0.2c-0.2-0.4-0.4-0.6-0.4-0.8c0.2-0.4,0.4-0.8,0.4-1.5
		c0-0.2,0-0.2,0-0.2c0.2-0.8,0.2-1.5,0.2-2.3c0-11.2-0.8-23.7-8.1-31.4c-0.4-0.4-0.6-0.6-1-1c1.2-0.4,2.3-0.6,3.5-1
		c3.5-0.8,7.7-1.2,12.3-1.7c5.2,0,14.4-0.2,14.4-0.2h13.1V431.9z M336.9,286.5h12.9c0,0,9.2,0.2,14.4,0.2c4.2,0,7.7,0.6,11,1.5
		c-18.1,8.1-31.9,25.4-38.3,49.6V286.5z M425,449.6c-49.4,0-78.6-55.9-78.6-105c0-28.1,11.7-50.6,40.6-51.2h2.3c5,0,9.6,0.6,14,1.9
		h0.2c43.3,10.4,66.8,55.5,66.8,97.3C470.3,421.9,456.9,449.6,425,449.6z"/>
</g>
<g id="Calque_8" class="st0">
	<path class="st2" d="M445.2,199.1"/>
</g>
<g id="Calque_2">
	<g>
		<path class="st3" d="M393.1,177.3c-0.2,0-0.2,0-0.4,0h-73.4l-46.2,0.2h-15.3c-0.2,0-0.2,0-0.4,0c-0.8,0-1.6,0.1-2.2,0.2
			c-26.3,1.8-44.2,32.6-52.1,48.9c1.2-5.4,1.8-10.2,1.8-13.9c0-17.3-6.3-35.2-27-35.2H61.7v3.9c0,0,35.8,2.2,39.1,2.2
			c8.2,0.4,8.8,6.6,7.4,10.6c-2.6,7-6.6,16.1-8.8,20.3l-36.6,75.2l-11.5,24.5c-0.8,1.2-6.8,12.3-10.5,17.5c-3.8,5-8,8-13.1,9.5
			c-4.6,1.4-17.5,2-17.5,2v3.2h83.1v-3.2L42.1,341l23.7-48.5l69.4-40.2l2.6-1.6c11.3,30.2,22.6,60.5,33.8,90.7l-4.4,0.4l-15.5,1.4
			v3.2h68.4v-3.2c0,0-8.6-0.4-14.1-1.6c-13.3-2.6-19.1-17.1-23.5-28.2l-2.6-6.8c6.4-18.1,13.1-39.2,18.1-57.7
			c9.5-25.1,29.2-66.2,56.5-67.2h1c6.2,0,9.9,3.4,11.7,9.3c7,23.3-14.7,84.4-26.7,120.8c-7,21.3,5,34.6,25.1,34.6h48.1
			c1.4,0,3,0,4.2-0.2h43V343l-21.7-1.8v-48.3c9.5,31.4,35.2,53.5,72.4,53.5c39,0,68.7-35.4,68.7-86.9c0-26.4-11.9-52.2-33.1-67.7
			c0,0,0,0,0,0c-0.4-0.4-0.5-0.7-0.4-0.8c0.6-0.9,14.3,7.3,41,24.5l2-3.4l-101.4-58.5c-0.7,1.1-1.3,2.3-2,3.4
			c29.3,15.4,43.7,23.7,43.2,24.8c-0.1,0.2-0.5,0.2-1.3,0c-8.2-2.9-17.1-4.4-26.9-4.4 M133.7,248.7l-65.1,37.6l43.8-90.1l2.8-5.6
			l0.8,2.2l13.9,36.8l6.6,17.5L133.7,248.7z M169.1,276.8l-35-93.5h33.6C194.3,183.3,184.2,230.6,169.1,276.8z M319.3,320
			c0,4.2-0.6,10.1-1,12.9c-0.8,4.4-2.2,7.8-8,9.3c-0.4,0-0.8,0.2-1.4,0.2c-0.4,0-1,0.2-1.6,0.2h-32.6c-27.6-1.2-16.1-20.5-4-57.5
			c2.2-7,4.6-14.3,6.6-21.7c3.2-9.7,8.7-28.3,9.3-48.3c0,0,0.7-21.6-7.8-30c-0.4-0.4-0.6-0.6-1-1c1.2-0.4,2.2-0.6,3.4-1
			c3.4-0.8,7.4-1.2,11.7-1.6c5,0,13.7-0.2,13.7-0.2h12.5V320z M339.4,181.1h12.3c0,0,8.8,0.2,13.7,0.2c4,0,7.4,0.6,10.5,1.4
			c-17.3,7.8-30.4,24.3-36.6,47.3V181.1z M466.9,282.4c0,28-12.8,54.5-43.3,54.5c-47.2,0-75.1-53.4-75.1-100.3
			c0-26.8,11.1-48.3,38.8-48.9h2.2c4.8,0,9.1,0.6,13.3,1.8h0.2C444.4,199.4,466.9,242.4,466.9,282.4z"/>
	</g>
</g>
</svg>
